{"title":"Get on Up 2014 CAM x264 AAC-Boy Better Know","uid":10724018,"size":971813544,"categoryP":"video","categoryS":"movies","magnet":"?xt=urn:btih:c40240cfea7ce8c067e35c09f9019a123889a953&amp;dn=Get+on+Up+2014+CAM+x264+AAC-Boy+Better+Know&amp;tr=udp%3A%2F%2Ftracker.openbittorrent.com%3A80&amp;tr=udp%3A%2F%2Fopen.demonii.com%3A1337&amp;tr=udp%3A%2F%2Ftracker.coppersurfer.tk%3A6969&amp;tr=udp%3A%2F%2Fexodus.desync.com%3A6969","seeders":1,"leechers":1,"uploader":"ali1997a","files":4,"time":1407525795,"description":"SilverTorrent - Clean And Verified Torrents Download\n &lt;a href=&quot;\nhttp://i.imgur.com/jd3dcTz.jpg&quot; rel=&quot;nofollow&quot; target=&quot;_NEW&quot;&gt;\nhttp://i.imgur.com/jd3dcTz.jpg&lt;/a&gt;\n\n\nINFO:\n\niMDB: http://www.imdb.com/title/tt2473602/\n\nGeneral\nComplete name: Get on Up 2014 CAM x264 AAC-Boy Better Know.mp4\nFormat: MPEG-4\nFormat profile: Base Media\nCodec ID: isom\nFile size: 894 MiB\nDuration: 2h 12mn\nOverall bit rate mode: Variable\nOverall bit rate: 944 Kbps\nEncoded date: UTC 2014-08-07 18:08:14\nTagged date: UTC 2014-08-07 18:08:14\n\nVideo\nID: 1\nFormat: AVC\nFormat/Info: Advanced Video Codec\nFormat profile: &lt;a class=&quot;__cf_email__&quot; href=&quot;/cdn-cgi/l/email-protection&quot; data-cfemail=&quot;b8f0d1dfd0f8f48c9689&quot;&gt;[email&amp;#160;protected]&lt;/a&gt;&lt;script cf-hash='f9e31' type=&quot;text/javascript&quot;&gt;\n/* &lt;![CDATA[ */!function(){try{var t=&quot;currentScript&quot;in document?document.currentScript:function(){for(var t=document.getElementsByTagName(&quot;script&quot;),e=t.length;e--;)if(t[e].getAttribute(&quot;cf-hash&quot;))return t[e]}();if(t&amp;&amp;t.previousSibling){var e,r,n,i,c=t.previousSibling,a=c.getAttribute(&quot;data-cfemail&quot;);if(a){for(e=&quot;&quot;,r=parseInt(a.substr(0,2),16),n=2;a.length-n;n+=2)i=parseInt(a.substr(n,2),16)^r,e+=String.fromCharCode(i);e=document.createTextNode(e),c.parentNode.replaceChild(e,c)}}}catch(u){}}();/* ]]&gt; */&lt;/script&gt;\nFormat settings, CABAC: Yes\nFormat settings, ReFrames: 3 frames\nCodec ID: avc1\nCodec ID/Info: Advanced Video Coding\nDuration: 2h 12mn\nBit rate mode: Variable\nBit rate: 821 Kbps\nMaximum bit rate: 40.0 Mbps\nWidth: 592 pixels\nHeight: 328 pixels\nDisplay aspect ratio: 16:9\nFrame rate mode: Constant\nFrame rate: 23.976 fps\nColor space: YUV\nChroma subsampling: 4:2:0\nBit depth: 8 bits\nScan type: Progressive\nBits/(Pixel*Frame): 0.176\nStream size: 777 MiB (87%)\nWriting library: x264 core 142 r2453 ea0ca51\n\nAudio\nID: 2\nFormat: AAC\nFormat/Info: Advanced Audio Codec\nFormat profile: LC\nCodec ID: 40\nDuration: 2h 12mn\nBit rate mode: Variable\nBit rate: 120 Kbps\nMaximum bit rate: 136 Kbps\nChannel(s): 2 channels\nChannel positions: Front: L R\nSampling rate: 48.0 KHz\nCompression mode: Lossy\nStream size: 113 MiB (13%)\nLanguage: English\nEncoded date: UTC 2014-08-07 18:02:44\nTagged date: UTC 2014-08-07 18:08:37\n\n\nSCREENS:\n &lt;a href=&quot;\nhttp://i.imgur.com/U6nblYi.png&quot; rel=&quot;nofollow&quot; target=&quot;_NEW&quot;&gt;\nhttp://i.imgur.com/U6nblYi.png&lt;/a&gt;\n &lt;a href=&quot;\nhttp://i.imgur.com/Xrao7X5.png&quot; rel=&quot;nofollow&quot; target=&quot;_NEW&quot;&gt;\nhttp://i.imgur.com/Xrao7X5.png&lt;/a&gt;\n &lt;a href=&quot;\nhttp://i.imgur.com/MK0rxpq.png&quot; rel=&quot;nofollow&quot; target=&quot;_NEW&quot;&gt;\nhttp://i.imgur.com/MK0rxpq.png&lt;/a&gt;\n\nSilverTorrent - Clean And Verified Torrents Download","torrent":{"xt":"urn:btih:c40240cfea7ce8c067e35c09f9019a123889a953","amp;dn":"Get+on+Up+2014+CAM+x264+AAC-Boy+Better+Know","amp;tr":["udp%3A%2F%2Ftracker.openbittorrent.com%3A80","udp%3A%2F%2Fopen.demonii.com%3A1337","udp%3A%2F%2Ftracker.coppersurfer.tk%3A6969","udp%3A%2F%2Fexodus.desync.com%3A6969"],"infoHash":"c40240cfea7ce8c067e35c09f9019a123889a953","infoHashBuffer":{"type":"Buffer","data":[196,2,64,207,234,124,232,192,103,227,92,9,249,1,154,18,56,137,169,83]},"announce":[],"urlList":[]}}